<svg xmlns:xlink="http://www.w3.org/1999/xlink" xmlns="http://www.w3.org/2000/svg" class="css-ze2te4 css-qd6ojx" viewBox="0 0 50.00000000000001 44.622377599605606" width="110"  height="98" ><g transform="translate(-7.3077228316896585, -10.023867431795463) scale(0.6467011246319653)" class="css-1e98oqk" fill="#FFFFFF"><path xmlns="http://www.w3.org/2000/svg" d="M60.4,25.9H11.6c-0.2,0-0.3,0.1-0.3,0.3v58c0,0.2,0.1,0.3,0.3,0.3h48.8c0.2,0,0.3-0.1,0.3-0.3v-58  C60.7,26,60.6,25.9,60.4,25.9z M51.3,77.5H20.8v-1.1h30.5V77.5z M57.9,69.1H14.1V28.7h43.8V69.1z" fill="#FFFFFF"></path><circle xmlns="http://www.w3.org/2000/svg" cx="21.8" cy="35.6" r="3.4" fill="#FFFFFF"></circle><path xmlns="http://www.w3.org/2000/svg" d="M54.4,66.6L42,36.3c-0.2-0.4-0.9-0.4-1,0l-7.1,17.3l-5.1-7.1c-0.1-0.2-0.3-0.2-0.5-0.2c-0.2,0-0.4,0.1-0.5,0.3L17.3,66.5  c-0.1,0.2-0.1,0.4,0,0.6c0.1,0.2,0.3,0.3,0.5,0.3h11.2h13.6h11.2c0.2,0,0.4-0.1,0.5-0.2C54.5,67,54.5,66.8,54.4,66.6z M26.2,52.1  l2.3-4.3l3.2,4.6l-1,1.5L29,51.9l-1.7,1.9L26.2,52.1z M43.4,45.2l-1.7-2.3l-1.3,1.9l-1-1.8l2.1-5.1l2.6,6.2L43.4,45.2z" fill="#FFFFFF"></path><path xmlns="http://www.w3.org/2000/svg" d="M88.5,27.3L41.1,15.5c-0.2,0-0.3,0.1-0.3,0.2l-2.2,8.8h2.9l1.4-5.6l42.5,10.5l-9.7,39.2l-13.8-3.4v7.3l8.1,2l-0.3,1.1  l-7.9-2V81l12.5,3.1c0.2,0,0.3-0.1,0.3-0.2l13.9-56.3C88.7,27.4,88.6,27.3,88.5,27.3z" fill="#FFFFFF"></path><g xmlns="http://www.w3.org/2000/svg" fill="#FFFFFF"><defs><polygon id="a" points="61.9,65.2 61.9,24.4 41.5,24.5 42.8,18.8 85.4,29.4 75.7,68.6   "></polygon><polygon id="a" points="61.9,65.2 61.9,24.4 41.5,24.5 42.8,18.8 85.4,29.4 75.7,68.6   "></polygon></defs><clipPath fill="#FFFFFF"><use xmlns:xlink="http://www.w3.org/1999/xlink" xlink:href="#a" overflow="visible" fill="#FFFFFF"></use></clipPath></g></g></svg>